<?xml version="1.0" standalone="no"?>
<!DOCTYPE svg PUBLIC "-//W3C//DTD SVG 20010904//EN"
 "http://www.w3.org/TR/2001/REC-SVG-20010904/DTD/svg10.dtd">
<svg version="1.0" xmlns="http://www.w3.org/2000/svg"
 width="120px" height="100px" viewBox="0 0 1563.000000 1563.000000"
 preserveAspectRatio="xMidYMid meet">
<metadata>
Created by potrace 1.16, written by Peter Selinger 2001-2019
</metadata>
<g transform="translate(0.000000,1563.000000) scale(0.100000,-0.100000)"
fill="#e09129" stroke="none">
<path d="M3736 10325 c-80 -28 -145 -119 -146 -203 0 -24 96 -412 221 -890
121 -466 251 -967 290 -1114 38 -147 69 -272 69 -279 0 -6 -32 -45 -71 -86
-145 -153 -248 -356 -290 -570 -25 -127 -20 -146 35 -141 31 3 31 3 52 108 27
131 71 253 126 344 69 119 169 239 181 219 3 -4 12 -34 20 -65 l15 -57 -48
-65 c-67 -93 -126 -216 -157 -332 -23 -85 -26 -120 -27 -249 -1 -133 2 -161
26 -247 82 -293 260 -511 522 -638 235 -114 469 -135 716 -63 297 86 543 315
649 605 48 129 55 177 56 351 l0 167 57 0 c55 0 58 -1 64 -27 10 -47 12 -50
33 -56 30 -7 61 19 61 54 l0 29 1215 0 1215 0 -6 -24 c-4 -17 0 -30 15 -45 29
-29 63 -15 75 33 l10 36 61 0 62 0 -9 -62 c-20 -134 8 -340 66 -487 158 -399
588 -659 1011 -612 252 28 451 126 622 304 132 137 212 289 254 480 27 121 22
330 -10 452 -31 117 -95 245 -187 373 -15 20 -15 29 -4 77 19 81 23 83 66 35
133 -147 229 -343 264 -540 18 -103 17 -102 58 -98 l37 3 -2 61 c-5 195 -136
476 -306 660 l-66 71 20 79 c28 110 209 805 215 827 5 16 42 17 598 17 624 0
616 -1 616 45 0 46 7 45 -602 45 -400 0 -578 3 -578 11 0 9 41 170 240 934 73
278 78 304 70 355 -12 71 -53 127 -120 163 l-52 27 -3632 0 c-3063 -1 -3637
-3 -3670 -15z m1019 -84 c-16 -14 -330 -145 -469 -195 -70 -26 -178 -60 -240
-76 -127 -32 -304 -57 -315 -44 -6 7 -41 124 -41 138 0 2 23 6 51 10 76 10
253 58 419 112 l145 48 220 6 c121 3 224 7 230 8 6 1 6 -1 0 -7z m950 -32
c-44 -17 -118 -41 -165 -55 -47 -13 -94 -29 -105 -34 -22 -11 -229 -85 -365
-130 -130 -44 -312 -109 -345 -124 -41 -19 -209 -70 -330 -100 -176 -44 -276
-58 -445 -63 l-166 -5 -13 53 c-8 30 -16 59 -18 64 -2 6 20 11 49 13 208 11
578 132 1023 336 l160 74 400 0 400 1 -80 -30z m2375 16 c-121 -29 -199 -45
-218 -45 -12 0 -47 -7 -79 -15 -32 -8 -74 -17 -93 -20 -50 -6 -176 -33 -235
-49 -27 -8 -97 -26 -154 -41 -57 -15 -111 -30 -120 -35 -9 -5 -56 -20 -105
-35 -49 -15 -121 -41 -160 -59 -39 -19 -120 -55 -180 -82 -110 -48 -300 -166
-412 -255 l-62 -49 -1221 0 c-1047 0 -1221 2 -1221 14 0 8 -3 21 -6 30 -5 14
8 16 107 16 283 1 530 62 1148 285 354 128 651 228 886 299 l180 54 1000 0
c851 1 992 -1 945 -13z m2996 -19 c48 -48 45 -60 -15 -52 -66 9 -245 -9 -400
-39 -69 -14 -166 -32 -216 -40 -49 -9 -139 -26 -200 -39 -60 -13 -173 -36
-250 -51 -323 -62 -603 -140 -826 -231 -129 -52 -295 -134 -365 -180 l-51 -34
-1169 0 -1169 0 70 47 c259 174 531 290 910 388 216 56 379 89 900 186 l420
77 1164 1 1163 1 34 -34z m20 -159 c3 -8 -21 -112 -52 -233 -31 -120 -57 -224
-57 -231 0 -12 -4 -12 -432 -33 -115 -5 -523 -10 -905 -10 l-695 0 52 31 c135
79 466 192 753 259 237 55 1019 210 1109 219 127 14 221 13 227 -2z m-5681
-606 c-10 -9 -164 -53 -245 -70 -282 -60 -740 -71 -1090 -26 -174 23 -212 34
-221 67 l-7 28 781 3 c430 1 784 3 787 5 2 1 0 -2 -5 -7z m1370 0 c-14 -12
-529 -195 -757 -270 -294 -95 -593 -164 -833 -191 -132 -14 -442 -12 -577 5
-209 26 -525 85 -638 119 -44 13 -44 13 -62 82 -24 94 -24 94 15 84 142 -39
692 -63 934 -41 280 26 548 90 723 175 l65 31 565 5 c311 3 567 6 570 8 2 1 0
-2 -5 -7z m2334 -6 c-3 -2 -34 -7 -69 -10 -88 -8 -299 -40 -740 -110 -91 -15
-183 -29 -205 -31 -68 -8 -346 -61 -680 -130 -769 -157 -913 -186 -1135 -223
-506 -87 -830 -120 -1240 -128 -400 -7 -730 16 -994 70 l-60 12 -13 50 c-19
75 -19 75 34 59 64 -19 377 -78 538 -101 160 -22 572 -25 705 -5 431 66 702
145 1495 436 l310 114 1029 1 c566 0 1027 -1 1025 -4z m1827 -12 c-34 -119
-49 -163 -54 -163 -30 -1 -277 -32 -354 -45 -439 -71 -799 -184 -1232 -387
l-169 -79 -1726 -4 -1726 -4 180 25 c326 44 657 103 1277 229 337 68 714 142
838 164 645 117 1355 208 1990 256 113 8 221 16 240 18 19 2 194 5 388 5 332
2 353 1 348 -15z m-76 -270 c0 -5 -9 -47 -21 -94 l-21 -87 -141 -5 c-236 -9
-471 -76 -665 -190 l-63 -37 -307 0 -307 0 65 31 c375 179 871 319 1320 374
135 16 140 16 140 8z m-70 -279 c0 -3 -8 -35 -17 -70 l-17 -64 -300 0 c-165 0
-297 2 -295 4 13 13 177 69 264 91 132 33 365 58 365 39z m-3310 -267 c118
-38 338 -86 725 -157 431 -80 614 -119 875 -186 209 -53 446 -121 464 -132 5
-2 -29 -16 -75 -29 -46 -13 -143 -52 -214 -88 l-130 -65 -789 0 -789 0 -113
76 c-117 78 -406 223 -574 289 -837 328 -1765 392 -2625 181 -93 -23 -138 -30
-140 -22 -7 21 -45 162 -45 167 0 2 753 2 1672 -1 l1673 -5 85 -28z m1783 -2
c482 -124 1048 -389 1235 -575 63 -64 66 -80 14 -80 -27 0 -62 13 -118 45
-152 87 -312 135 -510 154 -71 6 -139 22 -244 55 -420 135 -874 247 -1290 321
-266 46 -580 106 -602 114 -9 3 298 5 684 3 l700 -3 131 -34z m697 13 c172
-55 428 -174 590 -274 l88 -54 -27 -104 -26 -103 -50 45 c-156 141 -611 369
-972 487 -46 15 -83 27 -83 28 0 1 93 1 207 -1 177 -3 218 -6 273 -24z m510
22 l258 0 -9 -37 c-5 -21 -19 -77 -31 -125 l-23 -87 -85 50 c-99 58 -251 137
-330 169 -52 22 -97 51 -57 36 10 -3 135 -6 277 -6z m-4840 -135 c529 -48
1016 -182 1465 -403 88 -44 187 -96 220 -116 l60 -36 -566 0 c-564 0 -566 0
-585 21 -10 12 -50 47 -89 79 -395 323 -917 442 -1404 319 -181 -45 -309 -99
-469 -196 -40 -25 -75 -43 -77 -41 -1 1 -15 48 -29 103 -15 55 -29 107 -32
117 -4 13 17 21 123 46 261 62 514 101 748 115 153 10 489 5 635 -8z m-310
-200 c273 -39 527 -147 728 -311 l54 -44 -227 0 -227 0 -66 39 c-358 208 -794
214 -1170 15 -74 -39 -114 -54 -142 -54 -37 0 -40 2 -49 37 -6 20 -9 37 -8 38
1 1 38 24 82 52 154 97 289 156 455 197 191 47 381 57 570 31z m-220 -255
c210 -24 392 -98 565 -229 121 -92 240 -233 305 -361 27 -54 90 -222 90 -241
0 -6 -27 -9 -62 -7 l-62 3 -27 71 c-90 246 -265 437 -501 549 -161 76 -227 90
-423 90 -147 0 -182 -3 -255 -23 -144 -39 -272 -108 -416 -223 -8 -7 -16 10
-28 53 l-16 63 37 33 c20 18 71 52 112 76 212 123 444 173 681 146z m4815 0
c216 -25 448 -121 594 -246 5 -5 -21 -124 -28 -128 -4 -3 -22 9 -41 25 -295
252 -735 302 -1090 124 -218 -110 -409 -331 -484 -562 l-18 -53 -64 0 c-35 0
-64 2 -64 4 0 2 11 38 25 80 145 443 560 747 1045 765 19 0 76 -4 125 -9z
m-2969 -276 c387 -218 854 -405 1319 -528 l130 -34 -605 -1 c-599 -1 -607 -1
-765 24 -394 62 -654 131 -922 245 -45 19 -57 31 -92 90 -52 86 -111 161 -180
228 l-55 52 518 0 518 0 134 -76z m1376 52 c46 -13 185 -48 309 -77 l227 -53
-41 -55 c-53 -72 -139 -240 -162 -319 -16 -53 -22 -61 -39 -57 -487 107 -776
198 -1156 362 -112 49 -357 169 -412 203 l-33 20 612 0 613 0 82 -24z m-3102
-16 c312 -89 544 -326 632 -647 30 -112 30 -324 -1 -438 -91 -339 -355 -589
-694 -659 -148 -31 -333 -18 -481 34 -153 53 -315 174 -419 313 -53 72 -123
221 -149 317 -31 118 -31 298 0 423 79 318 333 579 639 656 117 30 118 30 263
26 99 -3 155 -9 210 -25z m4752 16 c334 -64 604 -315 700 -651 32 -114 33
-344 1 -455 -75 -261 -242 -464 -480 -584 -152 -76 -390 -107 -564 -71 -281
57 -525 247 -639 499 -99 218 -112 435 -39 661 100 314 381 552 719 608 60 10
234 6 302 -7z m-3780 -485 c102 -40 217 -77 328 -105 l95 -25 -173 -1 c-131 0
-187 4 -232 17 -65 18 -57 7 -95 131 -6 16 -6 16 77 -17z"/>
<path d="M4925 7388 c-143 -19 -294 -137 -349 -273 -97 -243 26 -513 271 -594
96 -31 158 -34 246 -12 92 24 156 59 217 121 234 232 135 642 -176 738 -86 26
-132 30 -209 20z m217 -120 c196 -90 266 -339 146 -519 -74 -110 -179 -163
-313 -157 -143 6 -246 76 -309 208 -61 128 -34 285 67 388 83 86 153 113 272
109 61 -2 94 -10 137 -29z"/>
<path d="M4959 7120 c-119 -21 -187 -161 -126 -262 46 -77 124 -111 200 -88
89 26 137 87 137 172 0 112 -100 197 -211 178z m86 -106 c44 -29 42 -106 -4
-141 -9 -7 -32 -13 -53 -13 -28 0 -42 7 -62 31 -14 17 -26 41 -26 54 0 13 12
37 26 54 30 36 78 42 119 15z"/>
<path d="M9745 7389 c-84 -12 -189 -66 -252 -131 -257 -265 -112 -700 253
-759 191 -31 392 78 477 258 27 60 32 80 35 168 3 81 0 111 -17 157 -42 121
-128 217 -245 272 -48 23 -76 29 -166 40 -14 1 -52 -1 -85 -5z m227 -127 c77
-37 128 -90 167 -172 22 -47 26 -68 26 -145 0 -77 -4 -98 -27 -147 -34 -73
-103 -142 -176 -176 -49 -23 -70 -27 -152 -27 -83 0 -102 3 -151 28 -143 70
-226 228 -199 379 18 97 72 182 152 239 96 69 246 77 360 21z"/>
<path d="M9795 7123 c-53 -9 -67 -15 -99 -44 -47 -41 -70 -104 -61 -166 13
-89 122 -166 208 -147 88 18 139 76 145 164 5 69 -15 119 -62 155 -33 25 -97
43 -131 38z m80 -118 c33 -32 33 -83 0 -119 -53 -57 -149 -19 -149 59 0 77 95
115 149 60z"/>
</g>
</svg>
